<svg aria-hidden="true" style="position:absolute;width:0;height:0" xmlns="http://www.w3.org/2000/svg" overflow="hidden"><defs><symbol id="facebook" viewBox="0 0 32 32"><path d="M21.328 5.312h2.923V.224A36.478 36.478 0 0020.144 0h-.157.008c-4.213 0-7.099 2.65-7.099 7.52V12H8.25v5.688h4.646V32h5.698V17.69h4.461l.707-5.688h-5.168V8.08c0-1.643.443-2.768 2.734-2.768z"/></symbol><symbol id="instagram" viewBox="0 0 32 32"><path d="M31.968 9.408c-.074-1.701-.349-2.869-.742-3.882a7.839 7.839 0 00-1.85-2.837l-.001-.001A7.906 7.906 0 0026.597.861l-.054-.018C25.524.449 24.362.176 22.661.101 20.949.019 20.405 0 16.059 0c-4.344 0-4.888.019-6.595.094-1.699.074-2.869.349-3.88.742a7.847 7.847 0 00-2.839 1.85l-.001.001A7.9 7.9 0 00.919 5.465l-.018.054C.506 6.538.232 7.7.157 9.401c-.082 1.712-.101 2.256-.101 6.602 0 4.344.019 4.888.094 6.595.075 1.701.35 2.869.744 3.882a7.915 7.915 0 001.849 2.837l.001.001c.8.813 1.77 1.443 2.832 1.843 1.019.395 2.182.67 3.882.744 1.707.075 2.251.094 6.595.094 4.346 0 4.89-.019 6.595-.094 1.701-.074 2.869-.349 3.882-.742a8.237 8.237 0 004.664-4.628l.019-.055c.394-1.019.669-2.182.744-3.882.075-1.707.093-2.251.093-6.595s-.006-4.888-.08-6.595zm-2.88 13.066c-.07 1.563-.333 2.406-.55 2.97a5.341 5.341 0 01-3.004 3.024l-.036.012c-.56.219-1.411.482-2.968.55-1.688.075-2.194.094-6.464.094-4.269 0-4.782-.019-6.464-.094-1.563-.069-2.406-.331-2.97-.55a4.953 4.953 0 01-1.836-1.192l-.001-.001a4.978 4.978 0 01-1.184-1.803L3.6 25.45c-.218-.563-.48-1.413-.549-2.97-.075-1.688-.094-2.195-.094-6.464 0-4.27.019-4.784.094-6.464.069-1.563.331-2.406.549-2.97a4.897 4.897 0 011.198-1.837l.002-.002a4.972 4.972 0 011.806-1.182l.034-.011c.56-.219 1.411-.48 2.968-.55 1.688-.074 2.195-.093 6.464-.093 4.275 0 4.782.019 6.464.093 1.563.069 2.406.331 2.97.55a4.91 4.91 0 011.837 1.194c.531.52.938 1.144 1.195 1.84.218.56.48 1.411.549 2.968.075 1.688.094 2.194.094 6.464 0 4.269-.019 4.768-.094 6.458z"/><path d="M16.059 7.782a8.223 8.223 0 00-8.219 8.221v.002a8.222 8.222 0 1016.444 0 8.222 8.222 0 00-8.222-8.222h-.002zm0 13.552a5.333 5.333 0 01.001-10.666h.001a5.334 5.334 0 110 10.668zM26.525 7.458a1.92 1.92 0 01-3.84 0 1.92 1.92 0 013.84 0z"/></symbol><symbol id="linkedin" viewBox="0 0 32 32"><path d="M31.992 32H32V20.262c0-5.741-1.235-10.163-7.947-10.163-3.227 0-5.392 1.77-6.277 3.45h-.093v-2.914h-6.365v21.363h6.627V21.42c0-2.786.528-5.48 3.978-5.48 3.398 0 3.45 3.179 3.45 5.658V32h6.619zM.528 10.635h6.635V32H.528V10.635zM3.843 0A3.843 3.843 0 000 3.843c0 2.12 1.722 3.878 3.843 3.878 2.12 0 3.842-1.757 3.842-3.878S5.965.002 3.844 0z"/></symbol><symbol id="logo-one" viewBox="0 0 64 32"><path d="M1.28 0l1.559 1.476h4.349v4.117l1.559 1.476V0H1.28z"/><path d="M0 1.414v6.867h7.253V5.552L2.885 1.416 0 1.414zm5.872 5.862H1.148V2.658h.334v4.306h4.39v.313zM2.089 9.554l.175-.359h.146l-.255.479v.279h-.132v-.279l-.254-.479h.146l.175.359zm.749.222h-.294l-.061.177h-.137l.286-.758h.118l.287.758h-.138l-.062-.177zm-.257-.106h.22l-.11-.315-.11.315zm.776.078c0-.035.01-.067.029-.096s.057-.064.113-.105a.525.525 0 01-.061-.092l-.001-.003a.183.183 0 01-.017-.075c0-.06.018-.106.054-.141s.085-.052.146-.052c.055 0 .1.016.135.049s.053.073.053.12v.001a.161.161 0 01-.025.087V9.44a.28.28 0 01-.078.079l-.001.001-.052.038.147.173a.306.306 0 00.032-.139h.11a.38.38 0 01-.066.23l.111.132h-.147l-.043-.051a.312.312 0 01-.186.061h-.008a.261.261 0 01-.18-.06.2.2 0 01-.067-.149v-.007zm.251.114a.19.19 0 00.12-.043l-.166-.195-.016.012c-.042.032-.063.068-.063.108a.11.11 0 00.034.085c.022.02.052.033.085.033h.006zm-.07-.488c0 .029.018.066.054.11l.058-.039.016-.013a.093.093 0 00.032-.071v-.003-.001a.07.07 0 00-.022-.05.08.08 0 00-.054-.021h-.006a.077.077 0 00-.056.025.09.09 0 00-.022.06v.003zm1.378.332c-.008.081-.038.144-.09.189s-.121.068-.208.068a.295.295 0 01-.16-.043.289.289 0 01-.106-.121l-.001-.002a.429.429 0 01-.039-.181v-.074c0-.071.013-.134.038-.189s.062-.097.109-.126a.302.302 0 01.165-.044c.084 0 .151.023.202.068s.081.11.089.193h-.131c-.006-.054-.022-.094-.048-.118s-.063-.036-.112-.036c-.057 0-.101.021-.132.063s-.046.103-.047.184v.067c0 .082.015.144.044.188s.073.065.129.065c.052 0 .091-.012.117-.035s.043-.062.05-.116h.131zm.723-.113c0 .074-.013.14-.038.196s-.063.099-.111.129-.102.045-.165.045-.116-.015-.164-.045a.297.297 0 01-.111-.127l-.001-.002a.444.444 0 01-.04-.185v-.051c0-.074.013-.139.039-.196a.29.29 0 01.275-.175.29.29 0 01.275.173.459.459 0 01.039.195v.042zm-.132-.039a.33.33 0 00-.048-.193.154.154 0 00-.128-.067h-.012c-.053 0-.1.026-.128.067v.001a.327.327 0 00-.049.189v.044c0 .083.016.148.049.193s.078.068.135.068c.058 0 .103-.022.134-.067s.047-.109.047-.195v-.039z"/></symbol><symbol id="logo-two" viewBox="0 0 64 32"><path d="M3.622.626h.029a4.843 4.843 0 01.926.124V.139a4.262 4.262 0 00-.765-.124L3.797.014a6.24 6.24 0 00-.308-.015h-.098a6.355 6.355 0 00-1.565.202A6.38 6.38 0 00.165.876v6.058a6.579 6.579 0 011.536-.607l.047-.01a6.6 6.6 0 011.31-.203l.018-.001h.018c.075-.004.15-.006.227-.006v-.621a7.305 7.305 0 00-1.778.241l.051-.011a8.043 8.043 0 00-.6.178l-.216.073V1.243l.092-.044A5.94 5.94 0 013.097.627l.016-.001h.02C3.219.622 3.305.62 3.39.62h.097c.045.001.09.002.134.005z"/><path d="M5.143 1.266h-.005c-.317 0-.628-.027-.93-.078l.033.005a4.684 4.684 0 01-.282-.057v5.989c.388.096.787.143 1.187.14a6.419 6.419 0 001.61-.211l-.045.01a6.327 6.327 0 001.691-.692l-.03.016V.438a6.615 6.615 0 01-1.535.607l-.047.01a6.721 6.721 0 01-1.645.211zm2.395.103l.216-.073v4.725l-.092.045c-.313.153-.68.289-1.062.388l-.041.009a5.75 5.75 0 01-1.412.183c-.143 0-.284-.006-.421-.018l-.148-.013V1.756l.172.012a7.28 7.28 0 002.789-.398zM.584 9.005a.317.317 0 00-.229-.097H.343h.001-.005a.362.362 0 00-.136.027l.002-.001a.313.313 0 00-.177.178l-.001.002a.343.343 0 00-.025.134v.809a.378.378 0 00.032.166.288.288 0 00.192.167c.039.011.08.017.121.017a.342.342 0 00.336-.341v-.09H.471v.076a.197.197 0 01-.013.069v-.001a.133.133 0 01-.031.046.149.149 0 01-.088.031l-.012.001a.107.107 0 01-.087-.044.188.188 0 01-.028-.1v-.763a.267.267 0 01.026-.121.11.11 0 01.104-.049H.341h.004c.037 0 .07.018.09.045a.171.171 0 01.035.104V9.345h.209v-.083-.004a.369.369 0 00-.027-.141l.001.003a.35.35 0 00-.071-.114zm1.257-.009a.36.36 0 00-.366-.066.337.337 0 00-.193.177l-.001.002a.383.383 0 00-.031.157v.776a.376.376 0 00.031.159.314.314 0 00.082.109.369.369 0 00.238.091.367.367 0 00.241-.091.321.321 0 00.08-.109.376.376 0 00.031-.159v-.776-.007a.366.366 0 00-.032-.152l.001.002a.356.356 0 00-.08-.113zm-.099 1.046l.001.012a.139.139 0 01-.042.1c-.027.023-.062.036-.1.036s-.073-.014-.1-.036a.14.14 0 01-.043-.1l.001-.013v.001-.776-.012c0-.039.016-.075.042-.1.027-.023.062-.036.1-.036s.073.014.1.036a.14.14 0 01.043.1l-.001.013v-.001.777zm1.75.347v-1.47h-.203l-.267.778h-.004l-.269-.778h-.201v1.469h.21v-.894h.004l.205.632h.105l.207-.632h.004v.894h.21zm1.192-1.366a.285.285 0 00-.119-.08.444.444 0 00-.144-.023h-.319v1.47h.209v-.574h.108a.386.386 0 00.189-.04.304.304 0 00.114-.111l.001-.001c.024-.039.041-.083.048-.128s.011-.1.011-.154v-.014.001a.875.875 0 00-.02-.21.323.323 0 00-.077-.135zm-.108.448a.188.188 0 01-.02.078v-.001a.119.119 0 01-.053.051h-.001a.21.21 0 01-.088.019h-.011.001-.096v-.5h.118c.031 0 .06.007.086.019l-.001-.001a.12.12 0 01.049.053v.001a.196.196 0 01.018.082v.098c0 .034.002.07 0 .101h-.002zm1.1-.552h-.172l-.324 1.47h.21l.061-.316h.285l.062.316h.21l-.332-1.47zm-.193.954l.103-.533h.004l.102.533h-.209zm1.546-.068h-.004l-.316-.885h-.201v1.47h.209v-.884h.004l.32.884h.197V8.921h-.209v.885zm1.28-.886l-.169.585h-.004l-.169-.585h-.221l.288.849v.621h.21v-.621l.288-.848H8.31zM0 10.804h.101v.283h.068v-.283h.1v-.058h-.27v.058zm.848-.058l-.132.341h.073l.028-.078h.136l.029.078h.075l-.136-.341H.848zm-.01.206l.046-.127.046.127H.837zm.849.009h.079v.044a.127.127 0 01-.081.029H1.68a.084.084 0 01-.067-.033.141.141 0 01-.025-.081v-.008c0-.076.033-.114.098-.114h.007c.034 0 .062.023.07.054v.001l.067-.013c-.014-.067-.063-.1-.145-.1H1.68a.175.175 0 00-.115.044.164.164 0 00-.049.131v-.001.008c0 .046.017.088.044.12.03.031.072.05.119.05h.017a.202.202 0 00.139-.055v-.134h-.148v.058zm.857-.215h-.069v.341h.239v-.058h-.17v-.283zm.724 0h-.069v.341h.069v-.341zm.708.228l-.14-.228h-.067v.341h.064v-.223l.137.223h.068v-.341h-.063v.228zm.64-.037h.17v-.058h-.17v-.075h.183v-.058h-.252v.341h.259v-.058h-.19v-.092zm1.552-.056h-.134v-.134h-.068v.341h.068v-.149h.134v.149h.068v-.341h-.068v.135zm.644.056h.171v-.058h-.171v-.075h.183v-.058h-.252v.341h.259v-.058h-.19v-.092zm.873 0c.059-.009.09-.041.09-.095l.001-.01a.08.08 0 00-.034-.066.19.19 0 00-.087-.021l-.014.001h.001-.145v.341h.069v-.143h.018a.1.1 0 01.038.008h-.001c.01.006.018.015.024.025l.074.108h.082l-.042-.067a.234.234 0 00-.075-.081l-.001-.001zm-.069-.047h-.051v-.086h.054l.014-.001c.02 0 .039.003.056.009h-.001a.045.045 0 01-.003.069.206.206 0 01-.057.009h-.013.001zm.727.047h.17v-.058h-.17v-.075h.183v-.058h-.252v.341h.259v-.058h-.19v-.092z"/></symbol><symbol id="logo-three" viewBox="0 0 64 32"><path d="M1.354 8.916c.007 0 .013.003.017.007l.044.046a.352.352 0 01-.124.087.434.434 0 01-.175.031h-.009a.44.44 0 01-.159-.03l.003.001a.356.356 0 01-.203-.208l-.001-.002a.444.444 0 01-.028-.158v-.006-.006c0-.057.011-.111.031-.161l-.001.003a.373.373 0 01.216-.21.468.468 0 01.17-.029.415.415 0 01.157.027.412.412 0 01.118.074l-.037.049a.038.038 0 01-.009.009c-.004.002-.008.004-.013.004h-.002a.03.03 0 01-.016-.005l-.02-.013-.028-.017A.315.315 0 001.2 8.38h-.002a.373.373 0 00-.06-.005h-.01a.32.32 0 00-.12.023l.002-.001a.3.3 0 00-.096.062.297.297 0 00-.062.098.364.364 0 00-.023.13.37.37 0 00.022.132.288.288 0 00.061.098.247.247 0 00.091.061.31.31 0 00.113.021.502.502 0 00.067-.004.239.239 0 00.101-.035c.015-.01.03-.02.044-.032a.037.037 0 01.021-.009zm1.267-.231a.417.417 0 01-.03.163.35.35 0 01-.083.126.386.386 0 01-.127.082l-.003.001a.502.502 0 01-.337-.001l.003.001a.38.38 0 01-.212-.208l-.001-.002a.446.446 0 01.001-.329l-.001.003a.387.387 0 01.083-.128.384.384 0 01.126-.079l.003-.001a.472.472 0 01.337.001l-.003-.001a.364.364 0 01.213.209c.02.052.03.108.03.164zm-.115 0v-.007a.375.375 0 00-.022-.126l.001.003a.262.262 0 00-.15-.159l-.002-.001a.368.368 0 00-.245.001l.002-.001a.257.257 0 00-.151.158l-.001.002a.42.42 0 000 .262c.025.073.08.131.15.158l.002.001a.362.362 0 00.243 0 .278.278 0 00.093-.061.299.299 0 00.059-.098.364.364 0 00.021-.131zm.98.137l.012.029.013-.029.015-.03-.001.001.28-.486c.006-.009.01-.014.016-.015s.012-.003.019-.003H3.927v.79h-.098v-.605-.014-.014.001l-.282.493a.04.04 0 01-.016.018.046.046 0 01-.023.006h-.017c-.009 0-.017-.002-.024-.006s-.013-.01-.017-.018l-.29-.496v.634h-.095V8.29H3.152c.007 0 .013.001.019.003H3.17a.028.028 0 01.015.015l.287.486a.17.17 0 01.014.027v.001zm1.055-.039v.296h-.11v-.788h.245a.49.49 0 01.137.017.27.27 0 01.097.049.21.21 0 01.055.077.27.27 0 01-.001.202.222.222 0 01-.059.079.275.275 0 01-.095.052l-.002.001a.421.421 0 01-.132.018l-.133-.002zm0-.085h.133a.301.301 0 00.085-.012.186.186 0 00.062-.034.134.134 0 00.037-.051V8.6a.167.167 0 00.013-.065v-.002-.008c0-.02-.004-.04-.012-.057v.001a.16.16 0 00-.038-.054.219.219 0 00-.148-.042h.001-.133v.325zm1.475.382h-.089a.048.048 0 01-.023-.007.049.049 0 01-.014-.018l-.075-.191H5.44l-.077.191a.049.049 0 01-.014.018.038.038 0 01-.023.008h-.088l.329-.79h.114l.334.79zm-.543-.294h.309l-.131-.322a.52.52 0 01-.024-.07l-.001-.004-.013.041a.249.249 0 01-.013.036l.001-.003-.13.321zm1.017-.493a.08.08 0 01.017.014l.48.595v-.613h.098v.79H7.03h-.001a.046.046 0 01-.021-.005.05.05 0 01-.017-.015l-.48-.595a.122.122 0 010 .027v.587h-.098v-.79h.058c.007 0 .013.001.02.004zm1.404.472v.314h-.11v-.314l-.303-.476h.1c.008 0 .016.003.022.007a.065.065 0 01.015.018l.19.307a.33.33 0 01.033.068l.001.002.014-.034a.247.247 0 01.019-.036l.187-.309a.115.115 0 01.014-.017.033.033 0 01.022-.008h.101l-.304.478zM3.432 6.964c.048.006.096.011.145.015.74-.316 1.367-.832 1.801-1.485s.656-1.413.64-2.186l-.816-.777a4.315 4.315 0 01-.234 2.484l.01-.029a4.55 4.55 0 01-1.545 1.978z"/><path d="M3.14 6.928l.022.004a4.398 4.398 0 001.632-2.036 4.185 4.185 0 00.144-2.587l.007.029-1.162-1.107c.364.687.577 1.502.577 2.366 0 .201-.012.399-.034.594l.002-.024a5.226 5.226 0 01-1.188 2.76zm3.942-2.707a4.01 4.01 0 01-1.367 2.183 4.257 4.257 0 01-.628.433l-.021.011a3.892 3.892 0 001.515-.817l-.005.004c.42-.367.753-.824.969-1.341l.009-.024-.471-.449z"/><path d="M6.897 4.096l-.671-.639a3.921 3.921 0 01-.639 2.078l.009-.015c-.4.622-.967 1.13-1.642 1.473h.003c.15 0 .301-.009.45-.026a4.15 4.15 0 001.62-1.132l.004-.005c.417-.476.72-1.062.861-1.708l.005-.026zM3.238.764L2.437 0C1.721.263 1.106.727.671 1.329S.002 2.645 0 3.375c.003.808.288 1.591.811 2.227s1.253 1.087 2.076 1.283c.734-.852 1.164-1.905 1.227-3.006A5 5 0 003.237.763zm5.509 3.214c-.003-.958-.404-1.877-1.115-2.554S5.957.364 4.951.362c-.465 0-.926.081-1.359.241l4.902 4.67c.16-.383.253-.827.253-1.294z"/></symbol><symbol id="logo-four" viewBox="0 0 64 32"><path d="M2.646 2.737h-.001a.863.863 0 00-.874.852v.001c0 .47.391.852.874.852h.001a.863.863 0 00.874-.852v-.001a.863.863 0 00-.874-.851zm6.45-.272c-.002-.653-.268-1.279-.742-1.741A2.57 2.57 0 004.78.723a2.433 2.433 0 00-.742 1.742v3.602s5.058-.549 5.059-3.602zM0 7.25c.002.476.2.904.516 1.211.321.311.76.504 1.243.504.483 0 .922-.192 1.243-.504.317-.307.515-.736.517-1.211V4.743s-3.52.383-3.52 2.506zm1.76.449h-.001a.463.463 0 01-.257-.077l.002.001a.46.46 0 01-.169-.199l-.001-.003a.435.435 0 01-.026-.262v.003a.452.452 0 01.359-.352h.003a.474.474 0 01.473.191.436.436 0 01.042.425l.001-.003c-.023.055-.057.105-.1.146s-.094.075-.15.098a.458.458 0 01-.177.034v-.002zm3.593-.279h-.36v.372h-.188v-.91h.593v.152h-.405v.235h.36v.151zm.901-.063c0 .09-.016.168-.048.236a.358.358 0 01-.332.211h-.018a.363.363 0 01-.327-.207l-.001-.002a.53.53 0 01-.05-.225v-.053c0-.09.016-.169.048-.236a.363.363 0 01.34-.212.357.357 0 01.339.212.55.55 0 01.049.236v.041zm-.19-.041a.388.388 0 00-.051-.218.166.166 0 00-.139-.074h-.015a.166.166 0 00-.138.073v.001a.375.375 0 00-.052.215v.044c0 .093.017.165.051.216s.083.077.148.077h.007a.164.164 0 00.137-.073v-.001a.383.383 0 00.051-.216v-.044zm.798.237v-.005a.098.098 0 00-.037-.076.49.49 0 00-.135-.06 1.026 1.026 0 01-.16-.065l.005.003c-.103-.056-.155-.131-.155-.226 0-.049.014-.093.041-.131s.068-.069.119-.091c.052-.022.11-.032.175-.032s.123.012.174.036c.051.023.09.057.118.099s.043.092.043.146h-.188c0-.042-.013-.074-.039-.097s-.063-.035-.111-.035a.175.175 0 00-.107.029.092.092 0 00-.038.074v.002c0 .029.015.054.044.074s.074.039.132.056c.107.032.184.072.233.119s.073.107.073.177c0 .079-.03.141-.089.186s-.14.067-.241.067a.472.472 0 01-.191-.038.302.302 0 01-.131-.105l-.001-.001a.27.27 0 01-.045-.15v-.006h.188c0 .1.06.151.18.151a.18.18 0 00.105-.027.088.088 0 00.037-.073V7.55zm1-.519h-.279v.758h-.188v-.758H7.12v-.152h.741v.152zm.655.364h-.36v.244h.423v.151h-.61v-.91h.609v.152h-.421v.217h.36v.147zm.51.061h-.149v.333H8.69v-.91h.338c.107 0 .19.024.249.072s.087.116.087.203a.283.283 0 01-.041.156.273.273 0 01-.12.098l-.002.001.197.372v.009h-.201l-.171-.333zm-.15-.152h.151a.154.154 0 00.109-.036.13.13 0 00.039-.093v-.007c0-.043-.012-.077-.037-.101s-.061-.037-.112-.037h-.151v.273zm1.137.164v.321h-.188v-.91h.355c.068 0 .128.012.18.038a.285.285 0 01.162.264c0 .089-.03.16-.092.211s-.145.077-.253.077h-.164zm0-.152h.167c.05 0 .087-.012.113-.035s.039-.057.039-.1v-.007a.15.15 0 00-.04-.102.147.147 0 00-.109-.043h-.172v.286zm1.186.079h-.36v.244h.422v.151h-.61v-.91h.609v.152h-.421v.217h.36v.147zm.87-.364h-.279v.758h-.188v-.758h-.275v-.152h.741v.152zm.655.364h-.36v.244h.422v.151h-.61v-.91h.609v.152h-.421v.217h.36v.147zm.509.061h-.149v.333h-.188v-.91h.338c.108 0 .191.024.249.072s.087.116.087.203a.275.275 0 01-.041.156.273.273 0 01-.12.098l-.002.001.197.372v.009h-.201l-.171-.333zm-.149-.152h.151a.154.154 0 00.109-.036.13.13 0 00.039-.092v-.007c0-.043-.012-.077-.037-.101s-.061-.037-.112-.037h-.151v.273zm1.102.246v-.005a.098.098 0 00-.037-.076.49.49 0 00-.135-.06 1.026 1.026 0 01-.16-.065l.005.003c-.103-.056-.155-.131-.155-.226 0-.049.014-.093.041-.131s.068-.069.119-.091c.052-.022.11-.032.175-.032s.123.012.174.036c.051.023.09.057.118.099s.043.092.043.146h-.188c0-.042-.013-.074-.039-.097s-.063-.035-.111-.035a.175.175 0 00-.107.029.092.092 0 00-.038.074v.002c0 .029.015.054.044.074s.074.039.132.056c.107.032.185.072.233.119s.073.107.073.177c0 .079-.03.141-.089.186s-.14.067-.241.067a.472.472 0 01-.191-.038.302.302 0 01-.131-.105l-.001-.001a.27.27 0 01-.045-.15v-.006h.188c0 .1.06.151.18.151a.18.18 0 00.105-.027.088.088 0 00.037-.073V7.55z"/></symbol><symbol id="logo-five" viewBox="0 0 64 32"><path d="M.957 8.379a.336.336 0 01.074.215v.017a.34.34 0 01-.114.255.49.49 0 01-.333.099H0V7.599h.572l.032-.001a.48.48 0 01.286.093L.889 7.69A.312.312 0 011 7.929v.017-.001a.322.322 0 01-.066.209.316.316 0 01-.174.107.33.33 0 01.198.117zm-.685-.206h.244a.235.235 0 00.156-.045.162.162 0 00.053-.12l-.001-.014v-.011a.17.17 0 00-.052-.122.236.236 0 00-.141-.047l-.02.001h.001-.24v.358zm.424.524a.168.168 0 00.058-.128v-.011V8.549a.172.172 0 00-.059-.13.25.25 0 00-.15-.05l-.017.001h.001-.256v.376h.26a.26.26 0 00.164-.047zm1.431.27l-.318-.534h-.12v.534h-.274V7.601h.518l.036-.001c.124 0 .238.044.326.118l-.001-.001a.434.434 0 01.037.566l.001-.001a.417.417 0 01-.247.139l.339.546h-.298zm-.437-.721h.224c.156 0 .233-.069.233-.207v-.012a.203.203 0 00-.058-.142.241.241 0 00-.155-.056l-.022.001h.001-.227l.003.416zm1.935.446h-.546l-.096.275h-.287l.501-1.351h.31l.499 1.351h-.287l-.094-.275zm-.073-.207l-.199-.577-.199.577h.399zm1.947.482h-.272l-.609-.929v.929h-.271V7.601h.271l.609.934v-.934h.272v1.366zm1.552-.327a.597.597 0 01-.243.24l-.003.002a.792.792 0 01-.382.086h-.484V7.602h.505c.132 0 .256.031.366.087l-.005-.002c.104.052.19.136.246.238a.794.794 0 01-.002.721l.002-.005zm-.312-.033a.503.503 0 00-.001-.653l.001.001a.47.47 0 00-.311-.117l-.031.001h.001-.189v.884h.189a.47.47 0 00.34-.116h-.001zM3.795 0s3.51 1.33 3.435 3.255v3.256S3.723 5.18 3.796 3.255L3.795 0zm6.562 5.749a4.743 4.743 0 012.209-.823l.021-.002V3.905a4.614 4.614 0 00-2.219 1.826l-.011.019z"/><path d="M9.958 6.056a4.802 4.802 0 012.595-2.354l.033-.011V.754S7.588 2.649 7.693 5.39v4.636s.223-.085.573-.244c0-.148 0-.298.016-.448a4.822 4.822 0 011.669-3.273l.006-.005z"/><path d="M9.483 7.779c.026-.322.085-.64.175-.949A4.457 4.457 0 008.6 9.625v.005c.407-.196.722-.365 1.03-.546l-.068.037a4.676 4.676 0 01-.076-1.36l-.001.018zm.199.016a4.613 4.613 0 00.067 1.245l-.005-.029c1.366-.82 2.9-2.088 2.841-3.62v-.134a4.472 4.472 0 00-2.6 1.22l.001-.001a4.465 4.465 0 00-.303 1.303l-.001.016z"/></symbol><symbol id="logo-six" viewBox="0 0 64 32"><path d="M9.545 4.555a.688.688 0 01-.121-.441v.002-.636c0-.195.04-.343.121-.445s.219-.152.416-.151c.185 0 .316.043.393.13a.56.56 0 01.116.381v.149h-.33v-.151-.02a.968.968 0 00-.01-.133l.001.005a.144.144 0 00-.047-.088.175.175 0 00-.106-.035l-.015.001h.001l-.014-.001a.193.193 0 00-.113.037h.001a.176.176 0 00-.055.096v.001a.832.832 0 00-.013.157v.772a.43.43 0 00.042.217.157.157 0 00.065.052h.001a.171.171 0 00.065.013l.021-.001h-.001l.014.001a.166.166 0 00.104-.036.157.157 0 00.049-.093v-.001a.89.89 0 00.01-.155v-.157h.33v.143a.617.617 0 01-.116.402l.001-.002c-.076.095-.205.142-.395.142s-.334-.05-.415-.155zm1.375.007c-.083-.099-.125-.243-.125-.434v-.669c0-.189.042-.332.125-.429s.223-.146.418-.145c.194 0 .333.048.416.145s.126.24.126.429v.669c0 .189-.043.334-.127.434s-.223.149-.415.149c-.192 0-.334-.05-.418-.149zm.572-.161a.4.4 0 00.04-.198v-.819l.001-.022a.388.388 0 00-.041-.174l.001.002a.162.162 0 00-.066-.053h-.001a.167.167 0 00-.088-.011h.001l-.022-.002a.176.176 0 00-.066.013h.001a.163.163 0 00-.068.053.372.372 0 00-.039.194v.823a.4.4 0 00.039.198.208.208 0 00.068.049h.001a.211.211 0 00.171-.001l-.001.001a.202.202 0 00.069-.049v-.004zm.785-1.498h.356l.267 1.235.274-1.235h.346l.035 1.783H13.3l-.027-1.239-.264 1.239h-.205l-.274-1.243-.025 1.243h-.259l.032-1.782zm1.676 0h.554c.319 0 .479.169.479.506 0 .323-.168.484-.504.484h-.188v.792h-.342l.002-1.782zm.473.762a.24.24 0 00.188-.057.306.306 0 00.049-.201v-.021a.626.626 0 00-.017-.145l.001.004a.134.134 0 00-.025-.049.121.121 0 00-.043-.035h-.001a.325.325 0 00-.134-.029l-.019.001h.001-.133v.532h.133zm1.053-.762h.367l.377 1.783h-.319l-.074-.411h-.327l-.077.411h-.323l.377-1.782zm.313 1.166l-.128-.748-.128.748h.256zm.735-1.166h.239l.458 1.017V2.903h.284v1.782h-.228l-.461-1.062v1.062h-.293l.001-1.782zm1.646 1.103l-.381-1.1h.321l.233.707.218-.707h.314l-.376 1.1v.68h-.328v-.68zm-8.1 1.459v.093h-.279v.724h-.117v-.724h-.28v-.093h.676zm.874.818h-.093a.036.036 0 01-.023-.008.04.04 0 01-.015-.019l-.081-.194h-.387l-.081.194a.052.052 0 01-.012.022.038.038 0 01-.023.008h-.092l.342-.817h.119l.346.814zm-.566-.304h.323l-.137-.333a.552.552 0 01-.024-.072l-.001-.004-.013.043-.012.034-.135.332zm1.155.224a.333.333 0 00.119-.01.462.462 0 00.052-.016l-.003.001.046-.02v-.184h-.137-.002a.025.025 0 01-.017-.006.02.02 0 01-.007-.014V5.89h.265v.313a.494.494 0 01-.141.066l-.004.001a.577.577 0 01-.083.017h-.003c-.03.003-.064.005-.099.005h-.005a.47.47 0 01-.172-.032l.003.001a.384.384 0 01-.224-.213l-.001-.003a.432.432 0 01-.031-.164v-.006-.006c0-.059.011-.116.032-.168l-.001.003a.39.39 0 01.225-.214.599.599 0 01.278-.023.385.385 0 01.209.096l-.033.051a.03.03 0 01-.011.011.027.027 0 01-.016.004.047.047 0 01-.021-.006.363.363 0 01-.035-.02l.002.001a.256.256 0 00-.044-.021l-.002-.001a.471.471 0 00-.06-.018h-.003a.425.425 0 00-.082-.007H11.521a.37.37 0 00-.13.023l.003-.001a.288.288 0 00-.101.065.294.294 0 00-.064.102.421.421 0 00.001.275l-.001-.003a.294.294 0 00.168.168c.044.014.09.02.135.016zm1.09-.013h.373v.093h-.487v-.817h.117l-.003.724zm.762.093h-.117v-.817h.117v.817zm.435-.814a.065.065 0 01.018.015l.5.616-.001-.015.001-.015v.001-.609h.102v.821h-.063a.054.054 0 01-.022-.005.065.065 0 01-.018-.015l-.499-.615v.636h-.098v-.817h.061a.04.04 0 01.019.004zm1.48-.004v.09h-.414v.27h.336v.087h-.336v.279h.414v.09h-.535v-.816h.535zM3.051.417l5.191 1.395v4.89L3.051 5.307V.416zM2.719 0v5.545L8.576 7.12V1.575L2.719 0z"/><path d="M5.857 9.694L0 8.118V2.573l5.857 1.575v5.545z"/><path d="M2.816.354L7.94 1.732 5.761 3.795.637 2.416 2.817.353zM2.719 0L0 2.573l5.857 1.575 2.718-2.573L2.718 0zm3.468 9.382l2.388-2.261-2.388-.643v2.904z"/></symbol><symbol id="twitter" viewBox="0 0 32 32"><path d="M32 6.078c-1.1.493-2.376.857-3.713 1.028l-.068.007a6.556 6.556 0 002.873-3.579l.013-.046a12.88 12.88 0 01-4.076 1.573l-.084.014A6.558 6.558 0 0015.6 9.557v.004c0 .52.043 1.021.152 1.496-5.454-.266-10.28-2.88-13.522-6.861a6.524 6.524 0 00-.902 3.313v.001a6.57 6.57 0 002.914 5.451 6.453 6.453 0 01-2.994-.823l.033.017v.072a6.592 6.592 0 005.213 6.44l.043.008a6.403 6.403 0 01-1.662.215h-.061.003c-.419 0-.843-.024-1.242-.112.85 2.598 3.261 4.509 6.13 4.57a13.093 13.093 0 01-8.122 2.8H1.57h.001-.062c-.531 0-1.055-.034-1.569-.099l.061.006c2.826 1.846 6.287 2.944 10.004 2.944h.063-.003c12.072 0 18.672-10 18.672-18.669 0-.288-.01-.57-.024-.848a13.203 13.203 0 003.258-3.355l.03-.047z"/></symbol></defs></svg>