<svg aria-hidden="true" style="position: absolute; width: 0; height: 0; overflow: hidden;" version="1.1" xmlns="http://www.w3.org/2000/svg" xmlns:xlink="http://www.w3.org/1999/xlink">
<defs>
<symbol id="facebook" viewBox="0 0 32 32">
<path fill="#afb1b8" style="fill: var(--color1, #afb1b8)" d="M21.328 5.312h2.923v-5.088c-1.232-0.143-2.66-0.224-4.107-0.224-0.052 0-0.104 0-0.157 0l0.008-0c-4.213 0-7.099 2.65-7.099 7.52v4.48h-4.646v5.688h4.646v14.312h5.698v-14.31h4.461l0.707-5.688h-5.168v-3.922c0-1.643 0.443-2.768 2.734-2.768z"></path>
</symbol>
<symbol id="instagram" viewBox="0 0 32 32">
<path fill="#afb1b8" style="fill: var(--color1, #afb1b8)" d="M31.968 9.408c-0.074-1.701-0.349-2.869-0.742-3.882-0.424-1.111-1.054-2.059-1.85-2.837l-0.001-0.001c-0.78-0.792-1.724-1.419-2.778-1.827l-0.054-0.018c-1.019-0.394-2.181-0.667-3.882-0.742-1.712-0.082-2.256-0.101-6.602-0.101-4.344 0-4.888 0.019-6.595 0.094-1.699 0.074-2.869 0.349-3.88 0.742-1.112 0.424-2.060 1.054-2.839 1.85l-0.001 0.001c-0.791 0.78-1.418 1.724-1.825 2.778l-0.018 0.054c-0.395 1.019-0.669 2.181-0.744 3.882-0.082 1.712-0.101 2.256-0.101 6.602 0 4.344 0.019 4.888 0.094 6.595 0.075 1.701 0.35 2.869 0.744 3.882 0.426 1.11 1.055 2.057 1.849 2.837l0.001 0.001c0.8 0.813 1.77 1.443 2.832 1.843 1.019 0.395 2.182 0.67 3.882 0.744 1.707 0.075 2.251 0.094 6.595 0.094 4.346 0 4.89-0.019 6.595-0.094 1.701-0.074 2.869-0.349 3.882-0.742 2.157-0.85 3.833-2.526 4.664-4.628l0.019-0.055c0.394-1.019 0.669-2.182 0.744-3.882 0.075-1.707 0.093-2.251 0.093-6.595s-0.006-4.888-0.080-6.595zM29.088 22.474c-0.070 1.563-0.333 2.406-0.55 2.97-0.552 1.399-1.64 2.486-3.004 3.024l-0.036 0.012c-0.56 0.219-1.411 0.482-2.968 0.55-1.688 0.075-2.194 0.094-6.464 0.094-4.269 0-4.782-0.019-6.464-0.094-1.563-0.069-2.406-0.331-2.97-0.55-0.721-0.269-1.334-0.676-1.836-1.192l-0.001-0.001c-0.517-0.503-0.924-1.117-1.184-1.803l-0.011-0.034c-0.218-0.563-0.48-1.413-0.549-2.97-0.075-1.688-0.094-2.195-0.094-6.464 0-4.27 0.019-4.784 0.094-6.464 0.069-1.563 0.331-2.406 0.549-2.97 0.269-0.722 0.678-1.337 1.198-1.837l0.002-0.002c0.504-0.517 1.119-0.923 1.806-1.182l0.034-0.011c0.56-0.219 1.411-0.48 2.968-0.55 1.688-0.074 2.195-0.093 6.464-0.093 4.275 0 4.782 0.019 6.464 0.093 1.563 0.069 2.406 0.331 2.97 0.55 0.693 0.256 1.325 0.662 1.837 1.194 0.531 0.52 0.938 1.144 1.195 1.84 0.218 0.56 0.48 1.411 0.549 2.968 0.075 1.688 0.094 2.194 0.094 6.464 0 4.269-0.019 4.768-0.094 6.458z"></path>
<path fill="#afb1b8" style="fill: var(--color1, #afb1b8)" d="M16.059 7.782c-4.539 0.002-8.218 3.682-8.219 8.221v0c0 0 0 0.001 0 0.002 0 4.541 3.681 8.222 8.222 8.222s8.222-3.681 8.222-8.222c0-4.541-3.681-8.222-8.222-8.222-0.001 0-0.001 0-0.002 0h0zM16.059 21.334c-2.945-0-5.332-2.388-5.332-5.333s2.388-5.333 5.333-5.333c0 0 0.001 0 0.001 0h-0c2.946 0 5.334 2.388 5.334 5.334s-2.388 5.334-5.334 5.334v0zM26.525 7.458c0 1.060-0.86 1.92-1.92 1.92s-1.92-0.86-1.92-1.92v0c0-1.060 0.86-1.92 1.92-1.92s1.92 0.86 1.92 1.92v0z"></path>
</symbol>
<symbol id="linkedin" viewBox="0 0 32 32">
<path fill="#afb1b8" style="fill: var(--color1, #afb1b8)" d="M31.992 32h0.008v-11.738c0-5.741-1.235-10.163-7.947-10.163-3.227 0-5.392 1.77-6.277 3.45h-0.093v-2.914h-6.365v21.363h6.627v-10.578c0-2.786 0.528-5.48 3.978-5.48 3.398 0 3.45 3.179 3.45 5.658v10.402h6.619zM0.528 10.635h6.635v21.365h-6.635v-21.365zM3.843 0c-2.123 0-3.843 1.721-3.843 3.843v0c0 2.12 1.722 3.878 3.843 3.878 2.12 0 3.842-1.757 3.842-3.878s-1.72-3.841-3.841-3.843h-0z"></path>
</symbol>
<symbol id="logo-one" viewBox="0 0 64 32">
<path fill="#afb1b8" style="fill: var(--color1, #afb1b8)" d="M1.28 0l1.559 1.476h4.349v4.117l1.559 1.476v-7.069h-7.467z"></path>
<path fill="#afb1b8" style="fill: var(--color1, #afb1b8)" d="M0 1.414v6.867h7.253v-2.729l-4.368-4.136-2.885-0.002zM5.872 7.276h-4.724v-4.618h0.334v4.306h4.39v0.313zM2.089 9.554l0.175-0.359h0.146l-0.255 0.479v0.279h-0.132v-0.279l-0.254-0.479h0.146l0.175 0.359zM2.838 9.776h-0.294l-0.061 0.177h-0.137l0.286-0.758h0.118l0.287 0.758h-0.138l-0.062-0.177zM2.581 9.67h0.22l-0.11-0.315-0.11 0.315zM3.357 9.748c0-0.035 0.010-0.067 0.029-0.096s0.057-0.064 0.113-0.105c-0.023-0.028-0.044-0.059-0.061-0.092l-0.001-0.003c-0.010-0.022-0.017-0.048-0.017-0.075v-0c0-0.060 0.018-0.106 0.054-0.141s0.085-0.052 0.146-0.052c0.055 0 0.1 0.016 0.135 0.049s0.053 0.073 0.053 0.12c0 0 0 0.001 0 0.001 0 0.032-0.009 0.062-0.025 0.087l0-0.001c-0.021 0.032-0.047 0.058-0.078 0.079l-0.001 0.001-0.052 0.038 0.147 0.173c0.021-0.042 0.032-0.088 0.032-0.139h0.11c0 0.093-0.022 0.17-0.066 0.23l0.111 0.132h-0.147l-0.043-0.051c-0.051 0.038-0.116 0.061-0.186 0.061-0.003 0-0.006-0-0.008-0h0c-0.075 0-0.135-0.020-0.18-0.060-0.041-0.037-0.067-0.090-0.067-0.149 0-0.002 0-0.005 0-0.007v0zM3.608 9.862c0.043 0 0.083-0.014 0.12-0.043l-0.166-0.195-0.016 0.012c-0.042 0.032-0.063 0.068-0.063 0.108 0 0.035 0.011 0.064 0.034 0.085 0.022 0.020 0.052 0.033 0.085 0.033 0.002 0 0.004-0 0.006-0h-0zM3.538 9.374c0 0.029 0.018 0.066 0.054 0.11l0.058-0.039 0.016-0.013c0.020-0.017 0.032-0.043 0.032-0.071 0-0.001 0-0.002-0-0.003v0c0-0 0-0 0-0.001 0-0.020-0.009-0.037-0.022-0.050l-0-0c-0.014-0.013-0.033-0.021-0.054-0.021-0.001 0-0.002 0-0.003 0h0c-0.001-0-0.002-0-0.003-0-0.022 0-0.042 0.010-0.056 0.025l-0 0c-0.014 0.016-0.022 0.037-0.022 0.060 0 0.001 0 0.002 0 0.003v-0zM4.916 9.706c-0.008 0.081-0.038 0.144-0.090 0.189s-0.121 0.068-0.208 0.068c-0.060 0-0.114-0.014-0.16-0.043-0.046-0.030-0.083-0.071-0.106-0.121l-0.001-0.002c-0.025-0.053-0.039-0.116-0.039-0.181 0-0.001 0-0.002 0-0.003v0-0.071c0-0.071 0.013-0.134 0.038-0.189s0.062-0.097 0.109-0.126c0.048-0.030 0.102-0.044 0.165-0.044 0.084 0 0.151 0.023 0.202 0.068s0.081 0.11 0.089 0.193h-0.131c-0.006-0.054-0.022-0.094-0.048-0.118s-0.063-0.036-0.112-0.036c-0.057 0-0.101 0.021-0.132 0.063s-0.046 0.103-0.047 0.184v0.067c0 0.082 0.015 0.144 0.044 0.188s0.073 0.065 0.129 0.065c0.052 0 0.091-0.012 0.117-0.035s0.043-0.062 0.050-0.116h0.131zM5.639 9.593c0 0.074-0.013 0.14-0.038 0.196s-0.063 0.099-0.111 0.129c-0.048 0.030-0.102 0.045-0.165 0.045s-0.116-0.015-0.164-0.045c-0.049-0.031-0.087-0.075-0.111-0.127l-0.001-0.002c-0.025-0.054-0.040-0.118-0.040-0.185 0-0.002 0-0.005 0-0.008v0-0.043c0-0.074 0.013-0.139 0.039-0.196s0.063-0.1 0.111-0.13c0.048-0.030 0.103-0.045 0.164-0.045s0.117 0.015 0.164 0.045c0.048 0.030 0.085 0.072 0.111 0.128s0.039 0.121 0.039 0.195v0.042zM5.507 9.554c0-0.084-0.016-0.148-0.048-0.193-0.028-0.041-0.075-0.067-0.128-0.067-0.002 0-0.005 0-0.007 0h0c-0.002-0-0.004-0-0.005-0-0.053 0-0.1 0.026-0.128 0.067l-0 0.001c-0.032 0.044-0.048 0.108-0.049 0.189v0.044c0 0.083 0.016 0.148 0.049 0.193s0.078 0.068 0.135 0.068c0.058 0 0.103-0.022 0.134-0.067s0.047-0.109 0.047-0.195v-0.039z"></path>
</symbol>
<symbol id="logo-two" viewBox="0 0 64 32">
<path fill="#afb1b8" style="fill: var(--color1, #afb1b8)" d="M3.622 0.626h0.029c0.054 0 0.112 0.005 0.17 0.010 0.254 0.018 0.507 0.056 0.756 0.114v-0.611c-0.226-0.060-0.492-0.104-0.765-0.124l-0.015-0.001c-0.088-0.007-0.198-0.012-0.308-0.015l-0.007-0h-0.091c-0.528 0.002-1.054 0.070-1.565 0.202-0.582 0.145-1.141 0.373-1.661 0.675v6.058c0.455-0.253 0.982-0.464 1.536-0.607l0.047-0.010c0.389-0.104 0.844-0.177 1.31-0.203l0.018-0.001h0.018c0.075-0.004 0.15-0.006 0.227-0.006v-0.621c-0.617 0.008-1.211 0.091-1.778 0.241l0.051-0.011c-0.209 0.054-0.411 0.113-0.6 0.178l-0.216 0.073v-4.724l0.092-0.044c0.655-0.318 1.42-0.524 2.227-0.572l0.016-0.001c0.003-0 0.006-0 0.010-0s0.007 0 0.010 0l-0-0c0.086-0.004 0.172-0.006 0.257-0.006h0.097c0.045 0.001 0.090 0.002 0.134 0.005z"></path>
<path fill="#afb1b8" style="fill: var(--color1, #afb1b8)" d="M5.143 1.266c-0.002 0-0.004 0-0.005 0-0.317 0-0.628-0.027-0.93-0.078l0.033 0.005c-0.096-0.016-0.191-0.036-0.282-0.057v5.989c0.388 0.096 0.787 0.143 1.187 0.14 0.557-0.002 1.096-0.076 1.61-0.211l-0.045 0.010c0.63-0.16 1.183-0.391 1.691-0.692l-0.030 0.016v-5.95c-0.455 0.252-0.981 0.464-1.535 0.607l-0.047 0.010c-0.538 0.138-1.091 0.209-1.645 0.211zM7.538 1.369l0.216-0.073v4.725l-0.092 0.045c-0.313 0.153-0.68 0.289-1.062 0.388l-0.041 0.009c-0.461 0.119-0.936 0.181-1.412 0.183-0.143 0-0.284-0.006-0.421-0.018l-0.148-0.013v-4.859l0.172 0.012c0.125 0.008 0.255 0.012 0.396 0.012 0.605-0.002 1.207-0.079 1.793-0.23 0.201-0.053 0.402-0.113 0.6-0.18zM0.584 9.005c-0.058-0.060-0.139-0.097-0.229-0.097-0.004 0-0.008 0-0.012 0l0.001-0c-0.001-0-0.003-0-0.005-0-0.048 0-0.094 0.010-0.136 0.027l0.002-0.001c-0.082 0.033-0.146 0.097-0.177 0.178l-0.001 0.002c-0.017 0.043-0.026 0.088-0.025 0.134v0.809c-0.002 0.057 0.009 0.114 0.032 0.166 0.019 0.042 0.047 0.079 0.081 0.109 0.032 0.027 0.070 0.047 0.111 0.058 0.039 0.011 0.080 0.017 0.121 0.017 0.045 0 0.090-0.009 0.131-0.028 0.122-0.054 0.205-0.174 0.205-0.313v0-0.090h-0.212v0.072c0 0.001 0 0.003 0 0.004 0 0.024-0.005 0.048-0.013 0.069l0-0.001c-0.007 0.018-0.018 0.033-0.031 0.046l-0 0c-0.024 0.019-0.055 0.030-0.088 0.031h-0c-0.004 0-0.008 0.001-0.012 0.001-0.036 0-0.067-0.017-0.087-0.044l-0-0c-0.018-0.029-0.028-0.063-0.028-0.1 0-0.003 0-0.006 0-0.008v0-0.755c-0.001-0.042 0.008-0.083 0.026-0.121 0.020-0.030 0.053-0.050 0.091-0.050 0.004 0 0.009 0 0.013 0.001l-0.001-0c0.001-0 0.003-0 0.004-0 0.037 0 0.070 0.018 0.090 0.045l0 0c0.022 0.029 0.035 0.065 0.035 0.104 0 0.002-0 0.003-0 0.005v-0 0.070h0.209v-0.083c0-0.001 0-0.002 0-0.004 0-0.050-0.009-0.097-0.027-0.141l0.001 0.003c-0.017-0.044-0.041-0.082-0.071-0.114l0 0zM1.841 8.996c-0.065-0.055-0.149-0.088-0.24-0.089h-0c-0.043 0-0.086 0.008-0.126 0.023-0.087 0.031-0.156 0.096-0.193 0.177l-0.001 0.002c-0.021 0.049-0.032 0.103-0.031 0.157v0.776c-0.001 0.055 0.009 0.109 0.031 0.159 0.019 0.042 0.047 0.079 0.082 0.109 0.032 0.030 0.070 0.053 0.112 0.068s0.083 0.023 0.126 0.023c0.092-0 0.177-0.035 0.241-0.091l-0 0c0.034-0.030 0.061-0.067 0.080-0.109 0.022-0.050 0.032-0.104 0.031-0.159v-0.776c0-0.002 0-0.004 0-0.007 0-0.054-0.011-0.106-0.032-0.152l0.001 0.002c-0.020-0.044-0.047-0.082-0.080-0.113l-0-0zM1.742 10.042c0 0.004 0.001 0.008 0.001 0.012 0 0.039-0.016 0.075-0.042 0.1l-0 0c-0.027 0.023-0.062 0.036-0.1 0.036s-0.073-0.014-0.1-0.036l0 0c-0.026-0.025-0.043-0.061-0.043-0.1 0-0.004 0-0.009 0.001-0.013l-0 0.001v-0.776c-0-0.004-0-0.008-0-0.012 0-0.039 0.016-0.075 0.042-0.1l0-0c0.027-0.023 0.062-0.036 0.1-0.036s0.073 0.014 0.1 0.036l-0-0c0.026 0.025 0.043 0.061 0.043 0.1 0 0.004-0 0.009-0.001 0.013l0-0.001v0.777zM3.492 10.389v-1.47h-0.203l-0.267 0.778h-0.004l-0.269-0.778h-0.201v1.469h0.21v-0.894h0.004l0.205 0.632h0.105l0.207-0.632h0.004v0.894h0.21zM4.684 9.023c-0.032-0.036-0.073-0.064-0.119-0.080-0.043-0.015-0.093-0.023-0.144-0.023-0.003 0-0.006 0-0.008 0h-0.311v1.47h0.209v-0.574h0.108c0.066 0.003 0.13-0.011 0.189-0.040 0.048-0.027 0.087-0.065 0.114-0.111l0.001-0.001c0.024-0.039 0.041-0.083 0.048-0.128s0.011-0.1 0.011-0.154c0-0.005-0-0.009-0-0.014v0.001c0.002-0.070-0.005-0.141-0.020-0.21-0.015-0.053-0.042-0.098-0.077-0.135l0 0zM4.576 9.471c-0.001 0.028-0.008 0.054-0.020 0.078l0-0.001c-0.012 0.023-0.031 0.040-0.053 0.051l-0.001 0c-0.026 0.012-0.056 0.019-0.088 0.019-0.004 0-0.008-0-0.011-0l0.001 0h-0.096v-0.5h0.108c0.003-0 0.007-0 0.010-0 0.031 0 0.060 0.007 0.086 0.019l-0.001-0.001c0.022 0.013 0.039 0.031 0.049 0.053l0 0.001c0.012 0.026 0.018 0.054 0.018 0.082v0.098c0 0.034 0.002 0.070 0 0.101h-0.002zM5.676 8.919h-0.172l-0.324 1.47h0.21l0.061-0.316h0.285l0.062 0.316h0.21l-0.332-1.47zM5.483 9.873l0.103-0.533h0.004l0.102 0.533h-0.209zM7.029 9.805h-0.004l-0.316-0.885h-0.201v1.47h0.209v-0.884h0.004l0.32 0.884h0.197v-1.469h-0.209v0.885zM8.309 8.919l-0.169 0.585h-0.004l-0.169-0.585h-0.221l0.288 0.849v0.621h0.21v-0.621l0.288-0.848h-0.222zM0 10.804h0.101v0.283h0.068v-0.283h0.1v-0.058h-0.27v0.058zM0.848 10.746l-0.132 0.341h0.073l0.028-0.078h0.136l0.029 0.078h0.075l-0.136-0.341h-0.073zM0.838 10.952l0.046-0.127 0.046 0.127h-0.093zM1.687 10.961h0.079v0.044c-0.022 0.018-0.050 0.029-0.081 0.029h-0c-0.001 0-0.003 0-0.005 0-0.027 0-0.052-0.013-0.067-0.033l-0-0c-0.016-0.023-0.025-0.051-0.025-0.081 0-0.003 0-0.005 0-0.008l-0 0c0-0.076 0.033-0.114 0.098-0.114 0.002-0 0.005-0 0.007-0 0.034 0 0.062 0.023 0.070 0.054l0 0.001 0.067-0.013c-0.014-0.067-0.063-0.1-0.145-0.1-0.001-0-0.003-0-0.005-0-0.044 0-0.084 0.017-0.115 0.044l0-0c-0.031 0.030-0.050 0.072-0.050 0.118 0 0.004 0 0.009 0.001 0.013l-0-0.001c-0 0.002-0 0.005-0 0.008 0 0.046 0.017 0.088 0.044 0.12l-0-0c0.030 0.031 0.072 0.050 0.119 0.050 0.004 0 0.007-0 0.011-0l-0 0c0.002 0 0.004 0 0.006 0 0.054 0 0.103-0.021 0.139-0.055l-0 0v-0.134h-0.148v0.058zM2.544 10.746h-0.069v0.341h0.239v-0.058h-0.17v-0.283zM3.268 10.746h-0.069v0.341h0.069v-0.341zM3.976 10.974l-0.14-0.228h-0.067v0.341h0.064v-0.223l0.137 0.223h0.068v-0.341h-0.063v0.228zM4.616 10.937h0.17v-0.058h-0.17v-0.075h0.183v-0.058h-0.252v0.341h0.259v-0.058h-0.19v-0.092zM6.168 10.881h-0.134v-0.134h-0.068v0.341h0.068v-0.149h0.134v0.149h0.068v-0.341h-0.068v0.135zM6.812 10.937h0.171v-0.058h-0.171v-0.075h0.183v-0.058h-0.252v0.341h0.259v-0.058h-0.19v-0.092zM7.685 10.937c0.059-0.009 0.090-0.041 0.090-0.095 0-0.003 0.001-0.006 0.001-0.010 0-0.027-0.013-0.051-0.034-0.066l-0-0c-0.025-0.013-0.055-0.021-0.087-0.021-0.005 0-0.009 0-0.014 0.001l0.001-0h-0.145v0.341h0.069v-0.143h0.013c0.002-0 0.004-0 0.005-0 0.013 0 0.026 0.003 0.038 0.008l-0.001-0c0.010 0.006 0.018 0.015 0.024 0.025l0.074 0.108h0.082l-0.042-0.067c-0.019-0.033-0.044-0.061-0.075-0.081l-0.001-0.001zM7.616 10.89h-0.051v-0.086h0.054c0.004-0 0.009-0.001 0.014-0.001 0.020 0 0.039 0.003 0.056 0.009l-0.001-0c0.009 0.008 0.015 0.020 0.015 0.033 0 0.015-0.007 0.028-0.018 0.036l-0 0c-0.017 0.005-0.037 0.009-0.057 0.009-0.005 0-0.009-0-0.013-0l0.001 0zM8.343 10.937h0.17v-0.058h-0.17v-0.075h0.183v-0.058h-0.252v0.341h0.259v-0.058h-0.19v-0.092z"></path>
</symbol>
<symbol id="logo-three" viewBox="0 0 64 32">
<path fill="#afb1b8" style="fill: var(--color1, #afb1b8)" d="M1.354 8.916c0.007 0 0.013 0.003 0.017 0.007v0l0.044 0.046c-0.034 0.037-0.076 0.067-0.124 0.087-0.055 0.022-0.115 0.033-0.175 0.031-0.003 0-0.006 0-0.009 0-0.056 0-0.11-0.011-0.159-0.030l0.003 0.001c-0.095-0.038-0.169-0.114-0.203-0.208l-0.001-0.002c-0.018-0.047-0.028-0.101-0.028-0.158 0-0.002 0-0.004 0-0.006v0c-0-0.002-0-0.004-0-0.006 0-0.057 0.011-0.111 0.031-0.161l-0.001 0.003c0.019-0.047 0.048-0.091 0.085-0.127s0.082-0.064 0.131-0.083c0.054-0.020 0.112-0.030 0.17-0.029 0.054-0.001 0.108 0.008 0.157 0.027 0.044 0.018 0.083 0.043 0.118 0.074l-0.037 0.049c-0.003 0.004-0.006 0.007-0.009 0.009l-0 0c-0.004 0.002-0.008 0.004-0.013 0.004-0.001 0-0.001-0-0.002-0h0c-0.006-0-0.011-0.002-0.016-0.005l0 0-0.020-0.013-0.028-0.017c-0.025-0.013-0.054-0.023-0.085-0.029l-0.002-0c-0.018-0.003-0.039-0.005-0.060-0.005-0.002 0-0.004 0-0.006 0h0c-0.001-0-0.003-0-0.004-0-0.042 0-0.083 0.008-0.12 0.023l0.002-0.001c-0.037 0.015-0.069 0.036-0.096 0.062v0c-0.027 0.028-0.048 0.062-0.062 0.098-0.016 0.042-0.023 0.086-0.023 0.13-0.001 0.045 0.007 0.090 0.022 0.132 0.013 0.036 0.034 0.069 0.061 0.098 0.025 0.027 0.056 0.047 0.091 0.061 0.036 0.014 0.074 0.021 0.113 0.021 0.022 0 0.045-0.001 0.067-0.004 0.036-0.004 0.071-0.016 0.101-0.035 0.015-0.010 0.030-0.020 0.044-0.032 0.005-0.005 0.013-0.008 0.021-0.009h0zM2.621 8.685c0.001 0.055-0.009 0.111-0.030 0.163-0.019 0.049-0.047 0.091-0.083 0.126l-0 0c-0.036 0.035-0.079 0.063-0.127 0.082l-0.003 0.001c-0.050 0.019-0.107 0.029-0.167 0.029s-0.117-0.011-0.17-0.030l0.003 0.001c-0.050-0.020-0.093-0.048-0.129-0.083l0 0c-0.035-0.035-0.064-0.078-0.083-0.125l-0.001-0.002c-0.019-0.048-0.030-0.104-0.030-0.163s0.011-0.114 0.031-0.166l-0.001 0.003c0.019-0.048 0.047-0.091 0.083-0.128 0.036-0.034 0.079-0.061 0.126-0.079l0.003-0.001c0.050-0.019 0.107-0.030 0.167-0.030s0.117 0.011 0.17 0.031l-0.003-0.001c0.049 0.019 0.093 0.047 0.13 0.083s0.064 0.079 0.083 0.126c0.020 0.052 0.030 0.108 0.030 0.164zM2.506 8.685c0-0.002 0-0.004 0-0.007 0-0.044-0.008-0.087-0.022-0.126l0.001 0.003c-0.025-0.073-0.080-0.131-0.15-0.159l-0.002-0.001c-0.036-0.014-0.078-0.021-0.121-0.021s-0.085 0.008-0.124 0.022l0.002-0.001c-0.072 0.028-0.127 0.086-0.151 0.158l-0.001 0.002c-0.028 0.085-0.028 0.176 0 0.262 0.025 0.073 0.080 0.131 0.15 0.158l0.002 0.001c0.078 0.028 0.164 0.028 0.243 0 0.035-0.014 0.067-0.035 0.093-0.061 0.026-0.029 0.046-0.062 0.059-0.098 0.015-0.042 0.022-0.086 0.021-0.131zM3.486 8.822l0.012 0.029c0.004-0.010 0.008-0.020 0.013-0.029 0.005-0.012 0.010-0.021 0.015-0.030l-0.001 0.001 0.28-0.486c0.006-0.009 0.010-0.014 0.016-0.015s0.012-0.003 0.019-0.003c0.001 0 0.003 0 0.004 0h0.083v0.79h-0.098v-0.605c-0-0.004-0-0.009-0-0.014s0-0.010 0-0.014l-0 0.001-0.282 0.493c-0.004 0.008-0.009 0.014-0.016 0.018l-0 0c-0.007 0.004-0.015 0.006-0.023 0.006-0 0-0 0-0.001 0h-0.016c-0.009 0-0.017-0.002-0.024-0.006s-0.013-0.010-0.017-0.018l-0-0-0.29-0.496v0.634h-0.095v-0.788h0.083c0.001-0 0.003-0 0.004-0 0.007 0 0.013 0.001 0.019 0.003l-0.001-0c0.007 0.003 0.012 0.008 0.015 0.015l0 0 0.287 0.486c0.005 0.008 0.010 0.017 0.014 0.027l0 0.001zM4.541 8.783v0.296h-0.11v-0.788h0.245c0.046-0.001 0.092 0.005 0.137 0.017 0.036 0.010 0.068 0.026 0.097 0.049 0.024 0.021 0.043 0.048 0.055 0.077 0.013 0.032 0.019 0.067 0.019 0.101s-0.006 0.069-0.020 0.101c-0.014 0.031-0.034 0.058-0.059 0.079l-0 0c-0.027 0.023-0.060 0.041-0.095 0.052l-0.002 0.001c-0.043 0.013-0.087 0.019-0.132 0.018l-0.133-0.002zM4.541 8.698h0.133c0.029 0 0.058-0.004 0.085-0.012 0.024-0.008 0.044-0.019 0.062-0.034l-0 0c0.016-0.014 0.029-0.031 0.037-0.051l0-0.001c0.008-0.019 0.013-0.041 0.013-0.065 0-0.001 0-0.001 0-0.002v0c0-0.002 0-0.005 0-0.008 0-0.020-0.004-0.040-0.012-0.057l0 0.001c-0.009-0.021-0.022-0.039-0.038-0.054l-0-0c-0.036-0.027-0.082-0.043-0.131-0.043-0.006 0-0.012 0-0.017 0.001l0.001-0h-0.133v0.325zM6.016 9.080h-0.087c-0.001 0-0.001 0-0.002 0-0.008 0-0.016-0.003-0.023-0.007l0 0c-0.006-0.005-0.011-0.011-0.014-0.018l-0-0-0.075-0.191h-0.375l-0.077 0.191c-0.003 0.007-0.008 0.013-0.014 0.018l-0 0c-0.006 0.005-0.015 0.008-0.023 0.008-0 0-0.001 0-0.001-0h-0.087l0.329-0.79h0.114l0.334 0.79zM5.473 8.786h0.309l-0.131-0.322c-0.009-0.020-0.017-0.045-0.024-0.070l-0.001-0.004-0.013 0.041c-0.004 0.014-0.008 0.025-0.013 0.036l0.001-0.003-0.13 0.321zM6.49 8.293c0.007 0.004 0.012 0.009 0.017 0.014l0.48 0.595v-0.613h0.098v0.79h-0.055c-0 0-0.001 0-0.001 0-0.008 0-0.015-0.002-0.021-0.005l0 0c-0.007-0.004-0.013-0.009-0.017-0.015l-0-0-0.48-0.595c0.001 0.009 0.001 0.018 0 0.027v0.587h-0.098v-0.79h0.058c0.007 0 0.013 0.001 0.020 0.004zM7.894 8.765v0.314h-0.11v-0.314l-0.303-0.476h0.098c0.001-0 0.001-0 0.002-0 0.008 0 0.016 0.003 0.022 0.007l-0-0c0.006 0.005 0.011 0.011 0.015 0.018l0 0 0.19 0.307c0.013 0.020 0.024 0.043 0.033 0.068l0.001 0.002 0.014-0.034c0.005-0.012 0.012-0.025 0.019-0.036l0.187-0.309c0.004-0.006 0.009-0.012 0.014-0.017l0-0c0.006-0.005 0.013-0.008 0.022-0.008 0.001 0 0.001 0 0.002 0h0.099l-0.304 0.478zM3.432 6.964c0.048 0.006 0.096 0.011 0.145 0.015 0.74-0.316 1.367-0.832 1.801-1.485s0.656-1.413 0.64-2.186l-0.816-0.777c0.054 0.256 0.085 0.551 0.085 0.852 0 0.578-0.114 1.129-0.319 1.632l0.010-0.029c-0.313 0.783-0.848 1.468-1.545 1.978z"></path>
<path fill="#afb1b8" style="fill: var(--color1, #afb1b8)" d="M3.14 6.928l0.022 0.004c0.746-0.508 1.314-1.218 1.632-2.036 0.18-0.448 0.284-0.968 0.284-1.512 0-0.372-0.049-0.732-0.14-1.075l0.007 0.029-1.162-1.107c0.364 0.687 0.577 1.502 0.577 2.366 0 0.201-0.012 0.399-0.034 0.594l0.002-0.024c-0.114 1.009-0.526 1.966-1.188 2.76zM7.082 4.221c-0.197 0.849-0.677 1.614-1.367 2.183-0.191 0.159-0.403 0.306-0.628 0.433l-0.021 0.011c0.585-0.166 1.091-0.446 1.515-0.817l-0.005 0.004c0.42-0.367 0.753-0.824 0.969-1.341l0.009-0.024-0.471-0.449z"></path>
<path fill="#afb1b8" style="fill: var(--color1, #afb1b8)" d="M6.897 4.096l-0.671-0.639c-0.015 0.769-0.248 1.48-0.639 2.078l0.009-0.015c-0.4 0.622-0.967 1.13-1.642 1.473h0.003c0.15 0 0.301-0.009 0.45-0.026 0.645-0.253 1.19-0.641 1.62-1.132l0.004-0.005c0.417-0.476 0.72-1.062 0.861-1.708l0.005-0.026zM3.238 0.764l-0.801-0.764c-0.716 0.263-1.331 0.727-1.766 1.329s-0.669 1.316-0.671 2.046c0.003 0.808 0.288 1.591 0.811 2.227s1.253 1.087 2.076 1.283c0.734-0.852 1.164-1.905 1.227-3.006s-0.244-2.192-0.877-3.116zM8.747 3.978c-0.003-0.958-0.404-1.877-1.115-2.554s-1.675-1.060-2.681-1.062c-0.465-0-0.926 0.081-1.359 0.241l4.902 4.67c0.16-0.383 0.253-0.827 0.253-1.294 0-0 0-0 0-0v0z"></path>
</symbol>
<symbol id="logo-four" viewBox="0 0 64 32">
<path fill="#afb1b8" style="fill: var(--color1, #afb1b8)" d="M2.646 2.737h-0.001c-0.483 0-0.874 0.381-0.874 0.852v0.001c0 0.47 0.391 0.852 0.874 0.852h0.001c0.483 0 0.874-0.381 0.874-0.852v-0.001c0-0.47-0.391-0.851-0.874-0.851zM9.096 2.465c-0.002-0.653-0.268-1.279-0.742-1.741s-1.116-0.722-1.786-0.724c-0.67 0.001-1.313 0.261-1.788 0.723s-0.741 1.088-0.742 1.742v3.602s5.058-0.549 5.059-3.602v-0zM0 7.25c0.002 0.476 0.2 0.904 0.516 1.211l0 0c0.321 0.311 0.76 0.504 1.243 0.504h0c0.483-0 0.922-0.192 1.243-0.504l-0 0c0.317-0.307 0.515-0.736 0.517-1.211v-2.507s-3.52 0.383-3.52 2.506zM1.76 7.699c-0 0-0 0-0.001 0-0.095 0-0.183-0.028-0.257-0.077l0.002 0.001c-0.075-0.049-0.133-0.118-0.169-0.199l-0.001-0.003c-0.022-0.051-0.035-0.11-0.035-0.171 0-0.031 0.003-0.061 0.009-0.091l-0 0.003c0.018-0.087 0.062-0.167 0.126-0.23 0.063-0.061 0.143-0.105 0.233-0.122l0.003-0c0.089-0.018 0.182-0.009 0.266 0.026s0.156 0.092 0.207 0.165c0.049 0.070 0.078 0.157 0.078 0.25 0 0.062-0.013 0.121-0.036 0.175l0.001-0.003c-0.023 0.055-0.057 0.105-0.1 0.146s-0.094 0.075-0.15 0.098c-0.052 0.022-0.113 0.034-0.177 0.034-0 0-0 0-0 0v0-0.002zM5.353 7.42h-0.36v0.372h-0.188v-0.91h0.593v0.152h-0.405v0.235h0.36v0.151zM6.254 7.357c0 0.090-0.016 0.168-0.048 0.236s-0.077 0.119-0.136 0.156c-0.056 0.035-0.123 0.055-0.196 0.055-0.002 0-0.005-0-0.007-0h0c-0.003 0-0.007 0-0.011 0-0.144 0-0.269-0.085-0.327-0.207l-0.001-0.002c-0.031-0.066-0.050-0.143-0.050-0.225 0-0.003 0-0.005 0-0.008v0-0.045c0-0.090 0.016-0.169 0.048-0.236s0.078-0.121 0.137-0.157c0.059-0.037 0.127-0.055 0.203-0.055s0.143 0.018 0.202 0.055c0.059 0.036 0.105 0.089 0.137 0.157s0.049 0.147 0.049 0.236v0.041zM6.064 7.316c0-0.095-0.017-0.168-0.051-0.218-0.030-0.045-0.081-0.074-0.139-0.074-0.003 0-0.005 0-0.008 0h0c-0.002-0-0.004-0-0.007-0-0.058 0-0.108 0.029-0.138 0.073l-0 0.001c-0.034 0.049-0.052 0.12-0.052 0.215v0.044c0 0.093 0.017 0.165 0.051 0.216s0.083 0.077 0.148 0.077c0.002 0 0.005 0 0.007 0 0.057 0 0.108-0.029 0.137-0.073l0-0.001c0.034-0.050 0.051-0.122 0.051-0.216v-0.044zM6.862 7.553c0-0.002 0-0.003 0-0.005 0-0.031-0.015-0.058-0.037-0.076l-0-0c-0.025-0.019-0.070-0.039-0.135-0.060-0.060-0.019-0.111-0.040-0.16-0.065l0.005 0.003c-0.103-0.056-0.155-0.131-0.155-0.226 0-0.049 0.014-0.093 0.041-0.131s0.068-0.069 0.119-0.091c0.052-0.022 0.11-0.032 0.175-0.032s0.123 0.012 0.174 0.036c0.051 0.023 0.090 0.057 0.118 0.099s0.043 0.092 0.043 0.146h-0.188c0-0.042-0.013-0.074-0.039-0.097s-0.063-0.035-0.111-0.035c-0.046 0-0.082 0.010-0.107 0.029-0.023 0.017-0.038 0.044-0.038 0.074 0 0.001 0 0.002 0 0.002v-0c0 0.029 0.015 0.054 0.044 0.074s0.074 0.039 0.132 0.056c0.107 0.032 0.184 0.072 0.233 0.119s0.073 0.107 0.073 0.177c0 0.079-0.030 0.141-0.089 0.186s-0.14 0.067-0.241 0.067c-0.070 0-0.134-0.013-0.191-0.038-0.054-0.023-0.099-0.059-0.131-0.105l-0.001-0.001c-0.028-0.042-0.045-0.094-0.045-0.15 0-0.002 0-0.004 0-0.006v0h0.188c0 0.1 0.060 0.151 0.18 0.151 0.045 0 0.079-0.009 0.105-0.027 0.023-0.016 0.037-0.043 0.037-0.073 0-0.001-0-0.003-0-0.004v0zM7.862 7.034h-0.279v0.758h-0.188v-0.758h-0.275v-0.152h0.741v0.152zM8.517 7.398h-0.36v0.244h0.423v0.151h-0.61v-0.91h0.609v0.152h-0.421v0.217h0.36v0.147zM9.027 7.459h-0.149v0.333h-0.188v-0.91h0.338c0.107 0 0.19 0.024 0.249 0.072s0.087 0.116 0.087 0.203c0 0.062-0.014 0.114-0.041 0.156-0.030 0.044-0.072 0.078-0.12 0.098l-0.002 0.001 0.197 0.372v0.009h-0.201l-0.171-0.333zM8.877 7.307h0.151c0.047 0 0.083-0.012 0.109-0.036 0.024-0.024 0.039-0.056 0.039-0.093 0-0.002-0-0.005-0-0.007v0c0-0.043-0.012-0.077-0.037-0.101s-0.061-0.037-0.112-0.037h-0.151v0.273zM10.014 7.471v0.321h-0.188v-0.91h0.355c0.068 0 0.128 0.012 0.18 0.038s0.092 0.061 0.12 0.107c0.028 0.046 0.042 0.098 0.042 0.157 0 0.089-0.030 0.16-0.092 0.211s-0.145 0.077-0.253 0.077h-0.164zM10.014 7.319h0.167c0.050 0 0.087-0.012 0.113-0.035s0.039-0.057 0.039-0.1c0-0.002 0-0.004 0-0.007 0-0.039-0.015-0.075-0.040-0.102l0 0c-0.026-0.028-0.063-0.042-0.109-0.043h-0.172v0.286zM11.2 7.398h-0.36v0.244h0.422v0.151h-0.61v-0.91h0.609v0.152h-0.421v0.217h0.36v0.147zM12.070 7.034h-0.279v0.758h-0.188v-0.758h-0.275v-0.152h0.741v0.152zM12.725 7.398h-0.36v0.244h0.422v0.151h-0.61v-0.91h0.609v0.152h-0.421v0.217h0.36v0.147zM13.234 7.459h-0.149v0.333h-0.188v-0.91h0.338c0.108 0 0.191 0.024 0.249 0.072s0.087 0.116 0.087 0.203c0 0.062-0.013 0.114-0.041 0.156-0.030 0.044-0.072 0.078-0.12 0.098l-0.002 0.001 0.197 0.372v0.009h-0.201l-0.171-0.333zM13.085 7.307h0.151c0.047 0 0.083-0.012 0.109-0.036 0.024-0.024 0.039-0.056 0.039-0.092 0-0.002-0-0.005-0-0.007v0c0-0.043-0.012-0.077-0.037-0.101s-0.061-0.037-0.112-0.037h-0.151v0.273zM14.187 7.553c0-0.002 0-0.003 0-0.005 0-0.031-0.015-0.058-0.037-0.076l-0-0c-0.025-0.019-0.070-0.039-0.135-0.060-0.060-0.019-0.111-0.040-0.16-0.065l0.005 0.003c-0.103-0.056-0.155-0.131-0.155-0.226 0-0.049 0.014-0.093 0.041-0.131s0.068-0.069 0.119-0.091c0.052-0.022 0.11-0.032 0.175-0.032s0.123 0.012 0.174 0.036c0.051 0.023 0.090 0.057 0.118 0.099s0.043 0.092 0.043 0.146h-0.188c0-0.042-0.013-0.074-0.039-0.097s-0.063-0.035-0.111-0.035c-0.046 0-0.082 0.010-0.107 0.029-0.023 0.017-0.038 0.044-0.038 0.074 0 0.001 0 0.002 0 0.002v-0c0 0.029 0.015 0.054 0.044 0.074s0.074 0.039 0.132 0.056c0.107 0.032 0.185 0.072 0.233 0.119s0.073 0.107 0.073 0.177c0 0.079-0.030 0.141-0.089 0.186s-0.14 0.067-0.241 0.067c-0.070 0-0.134-0.013-0.191-0.038-0.054-0.023-0.099-0.059-0.131-0.105l-0.001-0.001c-0.028-0.042-0.045-0.094-0.045-0.15 0-0.002 0-0.004 0-0.006v0h0.188c0 0.1 0.060 0.151 0.18 0.151 0.045 0 0.079-0.009 0.105-0.027 0.023-0.016 0.037-0.043 0.037-0.073 0-0.001-0-0.003-0-0.004v0z"></path>
</symbol>
<symbol id="logo-five" viewBox="0 0 64 32">
<path fill="#afb1b8" style="fill: var(--color1, #afb1b8)" d="M0.957 8.379c0.049 0.061 0.075 0.137 0.074 0.215 0 0.005 0 0.011 0 0.017 0 0.102-0.044 0.193-0.114 0.255l-0 0c-0.095 0.072-0.213 0.108-0.333 0.099h-0.584v-1.366h0.572c0.010-0.001 0.021-0.001 0.032-0.001 0.107 0 0.206 0.034 0.286 0.093l-0.001-0.001c0.068 0.058 0.111 0.143 0.111 0.239 0 0.006-0 0.012-0 0.017l0-0.001c0.003 0.075-0.020 0.149-0.066 0.209-0.045 0.054-0.106 0.092-0.174 0.107 0.077 0.014 0.148 0.055 0.198 0.117zM0.272 8.173h0.244c0.056 0.004 0.111-0.012 0.156-0.045 0.033-0.030 0.053-0.073 0.053-0.12 0-0.005-0-0.009-0.001-0.014l0 0.001c0-0.003 0-0.007 0-0.012 0-0.048-0.020-0.091-0.052-0.122l-0-0c-0.039-0.029-0.088-0.047-0.141-0.047-0.007 0-0.013 0-0.020 0.001l0.001-0h-0.24v0.358zM0.696 8.697c0.036-0.031 0.058-0.077 0.058-0.128 0-0.004-0-0.008-0-0.011l0 0.001c0-0.003 0-0.006 0-0.010 0-0.052-0.023-0.099-0.059-0.13l-0-0c-0.041-0.031-0.094-0.050-0.15-0.050-0.006 0-0.011 0-0.017 0.001l0.001-0h-0.256v0.376h0.26c0.058 0.003 0.116-0.013 0.164-0.047zM2.127 8.967l-0.318-0.534h-0.12v0.534h-0.274v-1.366h0.518c0.011-0.001 0.023-0.001 0.036-0.001 0.124 0 0.238 0.044 0.326 0.118l-0.001-0.001c0.077 0.079 0.124 0.186 0.124 0.305 0 0.098-0.032 0.188-0.087 0.261l0.001-0.001c-0.064 0.074-0.151 0.123-0.247 0.139l0.339 0.546h-0.298zM1.69 8.246h0.224c0.156 0 0.233-0.069 0.233-0.207 0-0.003 0-0.008 0-0.012 0-0.055-0.022-0.105-0.058-0.142l0 0c-0.042-0.035-0.096-0.056-0.155-0.056-0.007 0-0.015 0-0.022 0.001l0.001-0h-0.227l0.003 0.416zM3.625 8.692h-0.546l-0.096 0.275h-0.287l0.501-1.351h0.31l0.499 1.351h-0.287l-0.094-0.275zM3.552 8.485l-0.199-0.577-0.199 0.577h0.399zM5.499 8.967h-0.272l-0.609-0.929v0.929h-0.271v-1.366h0.271l0.609 0.934v-0.934h0.272v1.366zM7.051 8.64c-0.057 0.103-0.141 0.186-0.243 0.24l-0.003 0.002c-0.118 0.060-0.25 0.090-0.382 0.086h-0.484v-1.366h0.484c0.006-0 0.014-0 0.021-0 0.132 0 0.256 0.031 0.366 0.087l-0.005-0.002c0.104 0.052 0.19 0.136 0.246 0.238 0.054 0.104 0.085 0.228 0.085 0.358s-0.031 0.254-0.087 0.363l0.002-0.005zM6.739 8.607c0.075-0.087 0.12-0.201 0.12-0.326s-0.046-0.239-0.121-0.327l0.001 0.001c-0.083-0.073-0.192-0.117-0.311-0.117-0.010 0-0.020 0-0.031 0.001l0.001-0h-0.189v0.884h0.189c0.009 0.001 0.019 0.001 0.029 0.001 0.119 0 0.228-0.044 0.311-0.117l-0.001 0zM3.795 0s3.51 1.33 3.435 3.255v3.256s-3.507-1.331-3.434-3.256l-0.001-3.255zM10.357 5.749c0.628-0.439 1.387-0.735 2.209-0.823l0.021-0.002v-1.019c-0.938 0.37-1.703 1.011-2.219 1.826l-0.011 0.019z"></path>
<path fill="#afb1b8" style="fill: var(--color1, #afb1b8)" d="M9.958 6.056c0.548-1.093 1.471-1.93 2.595-2.354l0.033-0.011v-2.937s-4.998 1.895-4.893 4.636v4.636s0.223-0.085 0.573-0.244c0-0.148 0-0.298 0.016-0.448 0.11-1.318 0.734-2.471 1.669-3.273l0.006-0.005z"></path>
<path fill="#afb1b8" style="fill: var(--color1, #afb1b8)" d="M9.483 7.779c0.026-0.322 0.085-0.64 0.175-0.949-0.639 0.752-1.035 1.728-1.058 2.795l-0 0.005c0.407-0.196 0.722-0.365 1.030-0.546l-0.068 0.037c-0.060-0.285-0.094-0.612-0.094-0.947 0-0.139 0.006-0.277 0.018-0.413l-0.001 0.018zM9.682 7.795c-0.010 0.113-0.015 0.244-0.015 0.376 0 0.297 0.028 0.587 0.082 0.869l-0.005-0.029c1.366-0.82 2.9-2.088 2.841-3.62v-0.134c-1.017 0.118-1.914 0.56-2.6 1.22l0.001-0.001c-0.157 0.387-0.265 0.835-0.303 1.303l-0.001 0.016z"></path>
</symbol>
<symbol id="logo-six" viewBox="0 0 64 32">
<path fill="#afb1b8" style="fill: var(--color1, #afb1b8)" d="M9.545 4.555c-0.077-0.11-0.123-0.247-0.123-0.395 0-0.015 0.001-0.031 0.002-0.046l-0 0.002v-0.636c0-0.195 0.040-0.343 0.121-0.445s0.219-0.152 0.416-0.151c0.185 0 0.316 0.043 0.393 0.13 0.084 0.11 0.126 0.245 0.116 0.381v0.149h-0.33v-0.151c0-0.006 0-0.013 0-0.020 0-0.045-0.004-0.090-0.010-0.133l0.001 0.005c-0.005-0.035-0.022-0.066-0.047-0.088l-0-0c-0.029-0.022-0.066-0.035-0.106-0.035-0.005 0-0.010 0-0.015 0.001l0.001-0c-0.004-0-0.009-0.001-0.014-0.001-0.042 0-0.081 0.014-0.113 0.037l0.001-0c-0.028 0.025-0.047 0.058-0.055 0.096l-0 0.001c-0.009 0.052-0.014 0.105-0.013 0.157v0.772c-0.005 0.074 0.009 0.149 0.042 0.217 0.017 0.023 0.039 0.041 0.065 0.052l0.001 0c0.019 0.008 0.042 0.013 0.065 0.013 0.007 0 0.014-0 0.021-0.001l-0.001 0c0.004 0 0.009 0.001 0.014 0.001 0.039 0 0.075-0.013 0.104-0.036l-0 0c0.026-0.024 0.044-0.057 0.049-0.093l0-0.001c0.008-0.051 0.011-0.103 0.010-0.155v-0.157h0.33v0.143c0.001 0.012 0.001 0.026 0.001 0.039 0 0.135-0.043 0.261-0.117 0.363l0.001-0.002c-0.076 0.095-0.205 0.142-0.395 0.142s-0.334-0.050-0.415-0.155zM10.92 4.562c-0.083-0.099-0.125-0.243-0.125-0.434v-0.669c0-0.189 0.042-0.332 0.125-0.429s0.223-0.146 0.418-0.145c0.194 0 0.333 0.048 0.416 0.145s0.126 0.24 0.126 0.429v0.669c0 0.189-0.043 0.334-0.127 0.434s-0.223 0.149-0.415 0.149c-0.192 0-0.334-0.050-0.418-0.149zM11.492 4.401c0.030-0.062 0.044-0.13 0.040-0.198v-0.819c0-0.007 0.001-0.014 0.001-0.022 0-0.063-0.015-0.122-0.041-0.174l0.001 0.002c-0.017-0.023-0.040-0.042-0.066-0.053l-0.001-0c-0.019-0.008-0.041-0.013-0.065-0.013-0.008 0-0.016 0.001-0.023 0.002l0.001-0c-0.007-0.001-0.014-0.002-0.022-0.002-0.024 0-0.046 0.005-0.066 0.013l0.001-0c-0.028 0.012-0.051 0.030-0.068 0.053l-0 0c-0.030 0.060-0.044 0.127-0.039 0.194v0.823c-0.004 0.068 0.009 0.136 0.039 0.198 0.019 0.021 0.042 0.037 0.068 0.049l0.001 0c0.025 0.011 0.054 0.017 0.085 0.017s0.060-0.006 0.086-0.018l-0.001 0.001c0.027-0.012 0.050-0.028 0.069-0.049l0-0v-0.004zM12.277 2.903h0.356l0.267 1.235 0.274-1.235h0.346l0.035 1.783h-0.255l-0.027-1.239-0.264 1.239h-0.205l-0.274-1.243-0.025 1.243h-0.259l0.032-1.782zM13.953 2.903h0.554c0.319 0 0.479 0.169 0.479 0.506 0 0.323-0.168 0.484-0.504 0.484h-0.188v0.792h-0.342l0.002-1.782zM14.426 3.665c0.034 0.004 0.068 0.001 0.1-0.009s0.063-0.026 0.088-0.048c0.039-0.060 0.057-0.131 0.049-0.201 0-0.006 0-0.013 0-0.021 0-0.050-0.006-0.099-0.017-0.145l0.001 0.004c-0.005-0.019-0.014-0.035-0.025-0.049l0 0c-0.012-0.015-0.026-0.027-0.043-0.035l-0.001-0c-0.039-0.018-0.086-0.029-0.134-0.029-0.006 0-0.013 0-0.019 0.001l0.001-0h-0.133v0.532h0.133zM15.479 2.903h0.367l0.377 1.783h-0.319l-0.074-0.411h-0.327l-0.077 0.411h-0.323l0.377-1.782zM15.792 4.069l-0.128-0.748-0.128 0.748h0.256zM16.527 2.903h0.239l0.458 1.017v-1.017h0.284v1.782h-0.228l-0.461-1.062v1.062h-0.293l0.001-1.782zM18.173 4.006l-0.381-1.1h0.321l0.233 0.707 0.218-0.707h0.314l-0.376 1.1v0.68h-0.328v-0.68zM10.073 5.465v0.093h-0.279v0.724h-0.117v-0.724h-0.28v-0.093h0.676zM10.947 6.283h-0.090c-0.001 0-0.002 0-0.003 0-0.009 0-0.017-0.003-0.023-0.008l0 0c-0.007-0.005-0.012-0.011-0.015-0.019l-0-0-0.081-0.194h-0.387l-0.081 0.194c-0.002 0.009-0.007 0.016-0.012 0.022l0-0c-0.006 0.005-0.015 0.008-0.023 0.008-0.001 0-0.001-0-0.002-0h-0.090l0.342-0.817h0.119l0.346 0.814zM10.381 5.979h0.323l-0.137-0.333c-0.009-0.021-0.017-0.046-0.024-0.072l-0.001-0.004-0.013 0.043-0.012 0.034-0.135 0.332zM11.536 6.203c0.021 0.001 0.043 0.001 0.064 0 0.019-0.002 0.037-0.005 0.055-0.010 0.020-0.005 0.036-0.010 0.052-0.016l-0.003 0.001c0.015-0.006 0.030-0.013 0.046-0.020v-0.184h-0.137c-0 0-0.001 0-0.002 0-0.007 0-0.012-0.002-0.017-0.006l0 0c-0.004-0.003-0.007-0.009-0.007-0.014 0-0 0-0 0-0.001v0-0.063h0.265v0.313c-0.041 0.028-0.089 0.051-0.141 0.066l-0.004 0.001c-0.024 0.007-0.053 0.013-0.083 0.017l-0.003 0c-0.030 0.003-0.064 0.005-0.099 0.005-0 0-0.001 0-0.001 0h0c-0.001 0-0.002 0-0.004 0-0.061 0-0.118-0.011-0.172-0.032l0.003 0.001c-0.053-0.020-0.098-0.049-0.137-0.086l0 0c-0.037-0.036-0.067-0.079-0.087-0.127l-0.001-0.003c-0.020-0.048-0.031-0.105-0.031-0.164 0-0.002 0-0.004 0-0.006v0c-0-0.002-0-0.004-0-0.006 0-0.059 0.011-0.116 0.032-0.168l-0.001 0.003c0.020-0.048 0.050-0.092 0.088-0.129s0.086-0.066 0.137-0.085c0.059-0.021 0.121-0.031 0.183-0.030 0.032 0 0.064 0.002 0.095 0.007 0.028 0.004 0.055 0.011 0.081 0.021 0.024 0.009 0.047 0.019 0.068 0.032s0.041 0.027 0.060 0.043l-0.033 0.051c-0.003 0.005-0.006 0.008-0.011 0.011l-0 0c-0.004 0.003-0.010 0.004-0.016 0.004h-0c-0.008-0-0.015-0.003-0.021-0.006l0 0c-0.014-0.007-0.024-0.013-0.035-0.020l0.002 0.001c-0.013-0.008-0.028-0.015-0.044-0.021l-0.002-0.001c-0.018-0.007-0.039-0.013-0.060-0.018l-0.003-0c-0.025-0.005-0.053-0.007-0.082-0.007-0.002 0-0.003 0-0.005 0h0c-0.001 0-0.003-0-0.004-0-0.046 0-0.090 0.008-0.13 0.023l0.003-0.001c-0.039 0.015-0.073 0.037-0.101 0.065v0c-0.028 0.029-0.050 0.064-0.064 0.102-0.014 0.041-0.023 0.087-0.023 0.136s0.008 0.096 0.024 0.139l-0.001-0.003c0.015 0.038 0.038 0.074 0.068 0.103 0.028 0.028 0.062 0.050 0.1 0.065 0.044 0.014 0.090 0.020 0.135 0.016zM12.626 6.19h0.373v0.093h-0.487v-0.817h0.117l-0.003 0.724zM13.388 6.283h-0.117v-0.817h0.117v0.817zM13.823 5.469c0.007 0.004 0.013 0.009 0.018 0.015l0.5 0.616c-0-0.004-0.001-0.009-0.001-0.015s0-0.010 0.001-0.015l-0 0.001v-0.609h0.102v0.821h-0.059c-0.001 0-0.003 0-0.004 0-0.008 0-0.015-0.002-0.022-0.005l0 0c-0.007-0.004-0.013-0.009-0.018-0.015l-0-0-0.499-0.615v0.636h-0.098v-0.817h0.061c0.007 0 0.013 0.001 0.019 0.004zM15.303 5.465v0.090h-0.414v0.27h0.336v0.087h-0.336v0.279h0.414v0.090h-0.535v-0.816h0.535zM3.051 0.417l5.191 1.395v4.89l-5.191-1.395v-4.891zM2.719 0v5.545l5.857 1.575v-5.545l-5.857-1.575z"></path>
<path fill="#afb1b8" style="fill: var(--color1, #afb1b8)" d="M5.857 9.694l-5.857-1.576v-5.545l5.857 1.575v5.545z"></path>
<path fill="#afb1b8" style="fill: var(--color1, #afb1b8)" d="M2.816 0.354l5.124 1.378-2.179 2.063-5.124-1.379 2.18-2.063zM2.719 0l-2.719 2.573 5.857 1.575 2.718-2.573-5.857-1.575zM6.187 9.382l2.388-2.261-2.388-0.643v2.904z"></path>
</symbol>
<symbol id="twitter" viewBox="0 0 32 32">
<path fill="#afb1b8" style="fill: var(--color1, #afb1b8)" d="M32 6.078c-1.1 0.493-2.376 0.857-3.713 1.028l-0.068 0.007c1.36-0.817 2.382-2.078 2.873-3.579l0.013-0.046c-1.197 0.722-2.591 1.273-4.076 1.573l-0.084 0.014c-1.2-1.279-2.9-2.076-4.787-2.076-3.622 0-6.558 2.936-6.558 6.558 0 0.001 0 0.003 0 0.004v-0c0 0.52 0.043 1.021 0.152 1.496-5.454-0.266-10.28-2.88-13.522-6.861-0.564 0.949-0.899 2.092-0.902 3.313v0.001c0 2.272 1.171 4.286 2.914 5.451-1.091-0.030-2.107-0.325-2.994-0.823l0.033 0.017v0.072c0.003 3.165 2.236 5.807 5.213 6.44l0.043 0.008c-0.499 0.136-1.071 0.215-1.662 0.215-0.020 0-0.041-0-0.061-0l0.003 0c-0.419 0-0.843-0.024-1.242-0.112 0.85 2.598 3.261 4.509 6.13 4.57-2.215 1.746-5.045 2.8-8.122 2.8-0.004 0-0.008 0-0.013 0h0.001c-0.018 0-0.040 0-0.062 0-0.531 0-1.055-0.034-1.569-0.099l0.061 0.006c2.826 1.846 6.287 2.944 10.004 2.944 0.021 0 0.042-0 0.063-0h-0.003c12.072 0 18.672-10 18.672-18.669 0-0.288-0.010-0.57-0.024-0.848 1.299-0.936 2.39-2.064 3.258-3.355l0.030-0.047z"></path>
</symbol>
</defs>
</svg>
